<svg xmlns="http://www.w3.org/2000/svg" viewBox="0 0 32 32" role="img" aria-label="VoyageAI">
  <defs>
    <linearGradient id="voyage-solar" x1="0%" y1="0%" x2="100%" y2="100%">
      <stop offset="0%" stop-color="#ff9153"/>
      <stop offset="100%" stop-color="#ff6f7d"/>
    </linearGradient>
  </defs>
  <rect width="32" height="32" rx="9" fill="url(#voyage-solar)"/>
  <!-- Upright rocket (matches app gradient tile + Lucide-style rocket) -->
  <path
    fill="#020617"
    d="M16 6.5c-.3 0-.55.1-.75.28C13.5 8.2 12 11.8 12 14.5c0 1 .15 1.9.4 2.65l-.7 2.1a.45.45 0 00.35.58l1.35.45-.28 2.55a.45.45 0 00.72.38L16 21.9l2.16 1.31a.45.45 0 00.72-.38l-.28-2.55 1.35-.45a.45.45 0 00.35-.58l-.7-2.1c.25-.75.4-1.65.4-2.65 0-2.7-1.5-6.3-3.25-7.72-.2-.18-.45-.28-.75-.28zm0 3.25a2 2 0 110 4 2 2 0 010-4zM10.2 22.4l-1.35 3.1a.5.5 0 00.78.55l2.05-1.35-1.48-2.3zm11.6 0l-1.48 2.3 2.05 1.35a.5.5 0 00.78-.55l-1.35-3.1z"
  />
</svg>
